<svg width="3310" height="3606" viewBox="0 0 3310 3606" fill="none" xmlns="http://www.w3.org/2000/svg">
<rect x="50" y="532" width="3188" height="2542" rx="386" fill="white" stroke="#4E4E4E" stroke-width="100"/>
<g filter="url(#filter0_f_184_32)">
<rect x="469" y="582" width="2158" height="2442" fill="url(#paint0_linear_184_32)"/>
</g>
<path d="M2192 1952.5C2200.33 1975.83 2206.17 2002.5 2209.5 2032.5C2214.5 2060.83 2217 2090 2217 2120C2217 2150 2214.5 2180 2209.5 2210C2206.17 2238.33 2201.17 2263.33 2194.5 2285C2167.83 2378.33 2114.5 2456.67 2034.5 2520C1954.5 2581.67 1862.83 2626.67 1759.5 2655C1657.83 2683.33 1552 2693.33 1442 2685C1333.67 2676.67 1237 2649.17 1152 2602.5C1098.67 2572.5 1052.83 2535.83 1014.5 2492.5C976.167 2449.17 943.667 2400.83 917 2347.5C907 2329.17 900.333 2308.33 897 2285C895.333 2260 897.833 2236.67 904.5 2215C911.167 2191.67 922 2171.67 937 2155C952 2136.67 972.833 2124.17 999.5 2117.5C1016.17 2114.17 1034.5 2112.5 1054.5 2112.5C1076.17 2112.5 1097 2115.83 1117 2122.5C1137 2127.5 1155.33 2136.67 1172 2150C1188.67 2161.67 1202 2178.33 1212 2200C1230.33 2235 1256.17 2267.5 1289.5 2297.5C1324.5 2325.83 1361.17 2349.17 1399.5 2367.5C1454.5 2385.83 1509.5 2393.33 1564.5 2390C1621.17 2386.67 1672 2374.17 1717 2352.5C1763.67 2330.83 1801.17 2301.67 1829.5 2265C1857.83 2226.67 1872 2183.33 1872 2135C1872 2095 1866.17 2062.5 1854.5 2037.5C1842.83 2010.83 1826.17 1989.17 1804.5 1972.5C1784.5 1954.17 1759.5 1939.17 1729.5 1927.5C1701.17 1915.83 1669.5 1905.83 1634.5 1897.5C1594.5 1889.17 1553.67 1883.33 1512 1880C1472 1876.67 1431.17 1872.5 1389.5 1867.5C1347.83 1862.5 1307 1855.83 1267 1847.5C1227 1839.17 1187.83 1826.67 1149.5 1810C1072.83 1778.33 1014.5 1730 974.5 1665C934.5 1600 910.333 1530 902 1455C895.333 1380 904.5 1305.83 929.5 1232.5C954.5 1157.5 994.5 1093.33 1049.5 1040C1102.83 991.667 1166.17 957.5 1239.5 937.5C1314.5 915.833 1397 903.333 1487 900C1537 898.333 1587 900 1637 905C1688.67 910 1737.83 918.333 1784.5 930C1832.83 941.667 1877 956.667 1917 975C1958.67 993.333 1994.5 1015 2024.5 1040C2046.17 1056.67 2067.83 1079.17 2089.5 1107.5C2111.17 1134.17 2127.83 1163.33 2139.5 1195C2151.17 1225 2154.5 1254.17 2149.5 1282.5C2146.17 1310.83 2128.67 1335 2097 1355C2070.33 1371.67 2044.5 1379.17 2019.5 1377.5C1996.17 1374.17 1973.67 1366.67 1952 1355C1930.33 1341.67 1909.5 1326.67 1889.5 1310C1869.5 1293.33 1851.17 1278.33 1834.5 1265C1789.5 1231.67 1733.67 1209.17 1667 1197.5C1600.33 1185.83 1537.83 1183.33 1479.5 1190C1442.83 1195 1408.67 1203.33 1377 1215C1345.33 1226.67 1317.83 1242.5 1294.5 1262.5C1272.83 1282.5 1255.33 1307.5 1242 1337.5C1230.33 1365.83 1226.17 1398.33 1229.5 1435C1231.17 1461.67 1238.67 1484.17 1252 1502.5C1267 1520.83 1284.5 1535.83 1304.5 1547.5C1326.17 1559.17 1349.5 1568.33 1374.5 1575C1399.5 1581.67 1424.5 1586.67 1449.5 1590C1524.5 1600 1599.5 1607.5 1674.5 1612.5C1749.5 1617.5 1822.83 1634.17 1894.5 1662.5C1967.83 1690.83 2030.33 1729.17 2082 1777.5C2133.67 1825.83 2170.33 1884.17 2192 1952.5Z" fill="white"/>
<rect x="2485" y="284" width="486" height="3038" fill="#3D3D3D"/>
<rect x="2146" y="3322" width="1164" height="284" fill="#3D3D3D"/>
<rect x="2146" width="1164" height="284" fill="#3D3D3D"/>
<defs>
<filter id="filter0_f_184_32" x="269" y="382" width="2558" height="2842" filterUnits="userSpaceOnUse" color-interpolation-filters="sRGB">
<feFlood flood-opacity="0" result="BackgroundImageFix"/>
<feBlend mode="normal" in="SourceGraphic" in2="BackgroundImageFix" result="shape"/>
<feGaussianBlur stdDeviation="100" result="effect1_foregroundBlur_184_32"/>
</filter>
<linearGradient id="paint0_linear_184_32" x1="-183.5" y1="312" x2="2201.5" y2="2668.5" gradientUnits="userSpaceOnUse">
<stop stop-color="#9B4FFF"/>
<stop offset="1" stop-color="#F73799"/>
</linearGradient>
</defs>
</svg>
